<svg width="8" height="8" viewBox="0 0 8 8" fill="none" xmlns="http://www.w3.org/2000/svg">
<path d="M0.628 0.628666C0.282667 0.974 -9.55758e-10 1.26 -9.55285e-10 1.26333C-9.54718e-10 1.26733 0.614 1.884 1.36533 2.63533L2.73 4L1.36533 5.36467C0.614 6.116 -1.79713e-10 6.73267 -1.79145e-10 6.73667C-1.77916e-10 6.74533 1.25467 8 1.26333 8C1.26733 8 1.884 7.386 2.63533 6.63467L4 5.27L5.36467 6.63467C6.116 7.386 6.73267 8 6.73667 8C6.74533 8 8 6.74533 8 6.73667C8 6.73267 7.386 6.116 6.63467 5.36467L5.27 4L6.63467 2.63533C7.386 1.884 8 1.26733 8 1.26333C8 1.25467 6.74533 -3.13881e-07 6.73667 -3.1388e-07C6.73267 -3.13879e-07 6.116 0.614 5.36467 1.36533L4 2.73L2.63533 1.36533C1.884 0.614 1.26733 -3.13104e-07 1.26333 -3.13104e-07C1.25933 -3.13103e-07 0.974 0.282666 0.628 0.628666Z" fill="white"/>
</svg>
