<svg width="24" height="26" viewBox="0 0 24 26" fill="none" xmlns="http://www.w3.org/2000/svg">
<path d="M10 18.7826C11.775 18.7822 13.4988 18.1622 14.897 17.0212L19.293 21.6083L20.707 20.1329L16.311 15.5457C17.405 14.0866 17.9996 12.2874 18 10.4348C18 5.83199 14.411 2.08694 10 2.08694C5.589 2.08694 2 5.83199 2 10.4348C2 15.0376 5.589 18.7826 10 18.7826ZM10 4.1739C13.309 4.1739 16 6.9819 16 10.4348C16 13.8876 13.309 16.6956 10 16.6956C6.691 16.6956 4 13.8876 4 10.4348C4 6.9819 6.691 4.1739 10 4.1739Z" fill="#B5B5B5"/>
</svg>
